<mxfile host="app.diagrams.net" modified="2021-06-12T03:34:50.404Z" agent="5.0 (X11; Linux x86_64) AppleWebKit/537.36 (KHTML, like Gecko) Chrome/90.0.4430.72 Safari/537.36" etag="lM6WzgMlouCU4MGZuvMQ" version="14.7.7" type="github">
  <diagram id="l3SVyb221BhFx8IjSXw3" name="Page-1">
    <mxGraphModel dx="876" dy="804" grid="1" gridSize="5" guides="1" tooltips="1" connect="1" arrows="1" fold="1" page="1" pageScale="1" pageWidth="827" pageHeight="1169" math="0" shadow="0">
      <root>
        <mxCell id="0" />
        <mxCell id="1" parent="0" />
        <mxCell id="aKl-YUl-dlX9zGo-zKUE-29" value="" style="rounded=1;whiteSpace=wrap;html=1;fillColor=#dae8fc;strokeColor=#6c8ebf;" vertex="1" parent="1">
          <mxGeometry x="125" y="505" width="410" height="220" as="geometry" />
        </mxCell>
        <mxCell id="aKl-YUl-dlX9zGo-zKUE-26" style="edgeStyle=orthogonalEdgeStyle;rounded=0;orthogonalLoop=1;jettySize=auto;html=1;exitX=1;exitY=0.5;exitDx=0;exitDy=0;fontSize=15;" edge="1" parent="1" source="aKl-YUl-dlX9zGo-zKUE-1" target="aKl-YUl-dlX9zGo-zKUE-4">
          <mxGeometry relative="1" as="geometry" />
        </mxCell>
        <mxCell id="aKl-YUl-dlX9zGo-zKUE-38" style="edgeStyle=orthogonalEdgeStyle;rounded=0;orthogonalLoop=1;jettySize=auto;html=1;exitX=0.5;exitY=1;exitDx=0;exitDy=0;entryX=0.5;entryY=0;entryDx=0;entryDy=0;fontSize=15;" edge="1" parent="1" source="aKl-YUl-dlX9zGo-zKUE-1" target="aKl-YUl-dlX9zGo-zKUE-30">
          <mxGeometry relative="1" as="geometry" />
        </mxCell>
        <mxCell id="aKl-YUl-dlX9zGo-zKUE-1" value="" style="rounded=1;whiteSpace=wrap;html=1;fillColor=#dae8fc;strokeColor=#6c8ebf;" vertex="1" parent="1">
          <mxGeometry x="150" y="220" width="125" height="130" as="geometry" />
        </mxCell>
        <mxCell id="aKl-YUl-dlX9zGo-zKUE-2" value="Deep CNN" style="text;html=1;strokeColor=none;fillColor=none;align=center;verticalAlign=middle;whiteSpace=wrap;rounded=0;fontSize=15;fontStyle=1" vertex="1" parent="1">
          <mxGeometry x="166" y="220" width="80" height="30" as="geometry" />
        </mxCell>
        <mxCell id="aKl-YUl-dlX9zGo-zKUE-4" value="" style="rounded=1;whiteSpace=wrap;html=1;fillColor=#dae8fc;strokeColor=#6c8ebf;" vertex="1" parent="1">
          <mxGeometry x="310" y="90" width="280" height="390" as="geometry" />
        </mxCell>
        <mxCell id="aKl-YUl-dlX9zGo-zKUE-5" value="ASPP" style="text;html=1;strokeColor=none;fillColor=none;align=center;verticalAlign=middle;whiteSpace=wrap;rounded=0;fontSize=15;fontStyle=1" vertex="1" parent="1">
          <mxGeometry x="312" y="100" width="80" height="30" as="geometry" />
        </mxCell>
        <mxCell id="aKl-YUl-dlX9zGo-zKUE-20" style="edgeStyle=orthogonalEdgeStyle;rounded=0;orthogonalLoop=1;jettySize=auto;html=1;exitX=1;exitY=0.5;exitDx=0;exitDy=0;entryX=0;entryY=0.5;entryDx=0;entryDy=0;fontSize=15;" edge="1" parent="1">
          <mxGeometry relative="1" as="geometry">
            <mxPoint x="437" y="155" as="sourcePoint" />
            <mxPoint x="486" y="285" as="targetPoint" />
            <Array as="points">
              <mxPoint x="462" y="155" />
              <mxPoint x="462" y="285" />
            </Array>
          </mxGeometry>
        </mxCell>
        <mxCell id="aKl-YUl-dlX9zGo-zKUE-6" value="1x1 Conv" style="rounded=1;whiteSpace=wrap;html=1;fontSize=15;fillColor=#f5f5f5;strokeColor=#666666;fontColor=#333333;" vertex="1" parent="1">
          <mxGeometry x="342" y="140" width="96" height="30" as="geometry" />
        </mxCell>
        <mxCell id="aKl-YUl-dlX9zGo-zKUE-21" style="edgeStyle=orthogonalEdgeStyle;rounded=0;orthogonalLoop=1;jettySize=auto;html=1;exitX=1;exitY=0.5;exitDx=0;exitDy=0;fontSize=15;" edge="1" parent="1" source="aKl-YUl-dlX9zGo-zKUE-7">
          <mxGeometry relative="1" as="geometry">
            <mxPoint x="487" y="285" as="targetPoint" />
            <Array as="points">
              <mxPoint x="462" y="215" />
              <mxPoint x="462" y="285" />
            </Array>
          </mxGeometry>
        </mxCell>
        <mxCell id="aKl-YUl-dlX9zGo-zKUE-7" value="3x3 Conv&lt;br&gt;rate 6" style="rounded=1;whiteSpace=wrap;html=1;fontSize=15;fillColor=#f5f5f5;strokeColor=#666666;fontColor=#333333;" vertex="1" parent="1">
          <mxGeometry x="342" y="190" width="96" height="50" as="geometry" />
        </mxCell>
        <mxCell id="aKl-YUl-dlX9zGo-zKUE-22" style="edgeStyle=orthogonalEdgeStyle;rounded=0;orthogonalLoop=1;jettySize=auto;html=1;exitX=1;exitY=0.5;exitDx=0;exitDy=0;entryX=0;entryY=0.5;entryDx=0;entryDy=0;fontSize=15;" edge="1" parent="1" source="aKl-YUl-dlX9zGo-zKUE-8" target="aKl-YUl-dlX9zGo-zKUE-18">
          <mxGeometry relative="1" as="geometry" />
        </mxCell>
        <mxCell id="aKl-YUl-dlX9zGo-zKUE-8" value="3x3 Conv&lt;br&gt;rate 12" style="rounded=1;whiteSpace=wrap;html=1;fontSize=15;fillColor=#f5f5f5;strokeColor=#666666;fontColor=#333333;" vertex="1" parent="1">
          <mxGeometry x="342" y="260" width="96" height="50" as="geometry" />
        </mxCell>
        <mxCell id="aKl-YUl-dlX9zGo-zKUE-23" style="edgeStyle=orthogonalEdgeStyle;rounded=0;orthogonalLoop=1;jettySize=auto;html=1;exitX=1;exitY=0.5;exitDx=0;exitDy=0;entryX=0;entryY=0.5;entryDx=0;entryDy=0;fontSize=15;" edge="1" parent="1" source="aKl-YUl-dlX9zGo-zKUE-9" target="aKl-YUl-dlX9zGo-zKUE-18">
          <mxGeometry relative="1" as="geometry" />
        </mxCell>
        <mxCell id="aKl-YUl-dlX9zGo-zKUE-9" value="3x3 Conv&lt;br&gt;rate 18" style="rounded=1;whiteSpace=wrap;html=1;fontSize=15;fillColor=#f5f5f5;strokeColor=#666666;fontColor=#333333;" vertex="1" parent="1">
          <mxGeometry x="342" y="330" width="96" height="50" as="geometry" />
        </mxCell>
        <mxCell id="aKl-YUl-dlX9zGo-zKUE-24" style="edgeStyle=orthogonalEdgeStyle;rounded=0;orthogonalLoop=1;jettySize=auto;html=1;exitX=1;exitY=0.5;exitDx=0;exitDy=0;entryX=0;entryY=0.5;entryDx=0;entryDy=0;fontSize=15;" edge="1" parent="1" source="aKl-YUl-dlX9zGo-zKUE-10" target="aKl-YUl-dlX9zGo-zKUE-18">
          <mxGeometry relative="1" as="geometry" />
        </mxCell>
        <mxCell id="aKl-YUl-dlX9zGo-zKUE-10" value="Image&lt;br&gt;Pooling" style="rounded=1;whiteSpace=wrap;html=1;fontSize=15;fillColor=#f5f5f5;strokeColor=#666666;fontColor=#333333;" vertex="1" parent="1">
          <mxGeometry x="342" y="400" width="96" height="50" as="geometry" />
        </mxCell>
        <mxCell id="aKl-YUl-dlX9zGo-zKUE-28" style="edgeStyle=orthogonalEdgeStyle;rounded=0;orthogonalLoop=1;jettySize=auto;html=1;exitX=0.5;exitY=1;exitDx=0;exitDy=0;fontSize=15;" edge="1" parent="1" source="aKl-YUl-dlX9zGo-zKUE-17">
          <mxGeometry relative="1" as="geometry">
            <mxPoint x="455" y="534.9999999999998" as="targetPoint" />
            <Array as="points">
              <mxPoint x="525" y="370" />
              <mxPoint x="525" y="470" />
              <mxPoint x="455" y="470" />
            </Array>
          </mxGeometry>
        </mxCell>
        <mxCell id="aKl-YUl-dlX9zGo-zKUE-17" value="1x1 Conv" style="rounded=1;whiteSpace=wrap;html=1;fontSize=15;fillColor=#f5f5f5;strokeColor=#666666;fontColor=#333333;" vertex="1" parent="1">
          <mxGeometry x="474" y="340" width="96" height="30" as="geometry" />
        </mxCell>
        <mxCell id="aKl-YUl-dlX9zGo-zKUE-27" style="edgeStyle=orthogonalEdgeStyle;rounded=0;orthogonalLoop=1;jettySize=auto;html=1;exitX=0.5;exitY=1;exitDx=0;exitDy=0;fontSize=15;" edge="1" parent="1" source="aKl-YUl-dlX9zGo-zKUE-18" target="aKl-YUl-dlX9zGo-zKUE-17">
          <mxGeometry relative="1" as="geometry" />
        </mxCell>
        <mxCell id="aKl-YUl-dlX9zGo-zKUE-18" value="Concat" style="rounded=1;whiteSpace=wrap;html=1;fontSize=15;fillColor=#f5f5f5;strokeColor=#666666;fontColor=#333333;" vertex="1" parent="1">
          <mxGeometry x="487" y="270" width="70" height="30" as="geometry" />
        </mxCell>
        <mxCell id="aKl-YUl-dlX9zGo-zKUE-33" style="edgeStyle=orthogonalEdgeStyle;rounded=0;orthogonalLoop=1;jettySize=auto;html=1;exitX=1;exitY=0.5;exitDx=0;exitDy=0;fontSize=15;" edge="1" parent="1" source="aKl-YUl-dlX9zGo-zKUE-30" target="aKl-YUl-dlX9zGo-zKUE-32">
          <mxGeometry relative="1" as="geometry" />
        </mxCell>
        <mxCell id="aKl-YUl-dlX9zGo-zKUE-30" value="1x1 Conv" style="rounded=1;whiteSpace=wrap;html=1;fontSize=15;fillColor=#f5f5f5;strokeColor=#666666;fontColor=#333333;" vertex="1" parent="1">
          <mxGeometry x="165" y="542.5" width="96" height="30" as="geometry" />
        </mxCell>
        <mxCell id="aKl-YUl-dlX9zGo-zKUE-40" style="edgeStyle=orthogonalEdgeStyle;rounded=0;orthogonalLoop=1;jettySize=auto;html=1;exitX=0.5;exitY=1;exitDx=0;exitDy=0;fontSize=15;" edge="1" parent="1" source="aKl-YUl-dlX9zGo-zKUE-32" target="aKl-YUl-dlX9zGo-zKUE-35">
          <mxGeometry relative="1" as="geometry" />
        </mxCell>
        <mxCell id="aKl-YUl-dlX9zGo-zKUE-32" value="Concat" style="rounded=1;whiteSpace=wrap;html=1;fontSize=15;fillColor=#f5f5f5;strokeColor=#666666;fontColor=#333333;" vertex="1" parent="1">
          <mxGeometry x="290" y="542.5" width="70" height="30" as="geometry" />
        </mxCell>
        <mxCell id="aKl-YUl-dlX9zGo-zKUE-41" style="edgeStyle=orthogonalEdgeStyle;rounded=0;orthogonalLoop=1;jettySize=auto;html=1;exitX=0.5;exitY=1;exitDx=0;exitDy=0;fontSize=15;" edge="1" parent="1" source="aKl-YUl-dlX9zGo-zKUE-35" target="aKl-YUl-dlX9zGo-zKUE-39">
          <mxGeometry relative="1" as="geometry" />
        </mxCell>
        <mxCell id="aKl-YUl-dlX9zGo-zKUE-35" value="3x3 Conv" style="rounded=1;whiteSpace=wrap;html=1;fontSize=15;fillColor=#f5f5f5;strokeColor=#666666;fontColor=#333333;" vertex="1" parent="1">
          <mxGeometry x="281" y="595" width="88" height="35" as="geometry" />
        </mxCell>
        <mxCell id="aKl-YUl-dlX9zGo-zKUE-37" style="edgeStyle=orthogonalEdgeStyle;rounded=0;orthogonalLoop=1;jettySize=auto;html=1;exitX=0;exitY=0.5;exitDx=0;exitDy=0;fontSize=15;" edge="1" parent="1" source="aKl-YUl-dlX9zGo-zKUE-36" target="aKl-YUl-dlX9zGo-zKUE-32">
          <mxGeometry relative="1" as="geometry" />
        </mxCell>
        <mxCell id="aKl-YUl-dlX9zGo-zKUE-36" value="Upsample&amp;nbsp;&lt;br&gt;by 4" style="rounded=1;whiteSpace=wrap;html=1;fontSize=15;fillColor=#f5f5f5;strokeColor=#666666;fontColor=#333333;" vertex="1" parent="1">
          <mxGeometry x="406.25" y="534.5" width="92.5" height="45" as="geometry" />
        </mxCell>
        <mxCell id="aKl-YUl-dlX9zGo-zKUE-39" value="Upsample&amp;nbsp;&lt;br&gt;by 4" style="rounded=1;whiteSpace=wrap;html=1;fontSize=15;fillColor=#f5f5f5;strokeColor=#666666;fontColor=#333333;" vertex="1" parent="1">
          <mxGeometry x="279" y="654" width="92.5" height="45" as="geometry" />
        </mxCell>
        <mxCell id="aKl-YUl-dlX9zGo-zKUE-43" value="" style="shape=flexArrow;endArrow=classic;html=1;fontSize=15;" edge="1" parent="1">
          <mxGeometry width="50" height="50" relative="1" as="geometry">
            <mxPoint x="85" y="290" as="sourcePoint" />
            <mxPoint x="150" y="290" as="targetPoint" />
          </mxGeometry>
        </mxCell>
        <mxCell id="aKl-YUl-dlX9zGo-zKUE-44" value="" style="shape=flexArrow;endArrow=classic;html=1;fontSize=15;exitX=0.5;exitY=1;exitDx=0;exitDy=0;" edge="1" parent="1" source="aKl-YUl-dlX9zGo-zKUE-39">
          <mxGeometry width="50" height="50" relative="1" as="geometry">
            <mxPoint x="360" y="780" as="sourcePoint" />
            <mxPoint x="325" y="760" as="targetPoint" />
          </mxGeometry>
        </mxCell>
        <mxCell id="aKl-YUl-dlX9zGo-zKUE-45" value="Decoder" style="text;html=1;strokeColor=none;fillColor=none;align=center;verticalAlign=middle;whiteSpace=wrap;rounded=0;fontSize=15;fontStyle=1" vertex="1" parent="1">
          <mxGeometry x="140" y="685" width="80" height="30" as="geometry" />
        </mxCell>
      </root>
    </mxGraphModel>
  </diagram>
</mxfile>
